<svg id="color" enable-background="new 0 0 24 24" height="512" viewBox="0 0 24 24" width="512" xmlns="http://www.w3.org/2000/svg"><path d="m21.75 11h-3.5c-.689 0-1.25.561-1.25 1.25v8c0 .414.336.75.75.75h4.5c.414 0 .75-.336.75-.75v-8c0-.689-.561-1.25-1.25-1.25z" fill="#2196f3"/><path d="m13.75 7h-3.5c-.689 0-1.25.561-1.25 1.25v12c0 .414.336.75.75.75h4.5c.414 0 .75-.336.75-.75v-12c0-.689-.561-1.25-1.25-1.25z" fill="#64b5f6"/><path d="m5.75 3h-3.5c-.689 0-1.25.561-1.25 1.25v16c0 .414.336.75.75.75h4.5c.414 0 .75-.336.75-.75v-16c0-.689-.561-1.25-1.25-1.25z" fill="#90caf9"/><path d="m4 3h-1.75c-.689 0-1.25.561-1.25 1.25v16c0 .414.336.75.75.75h2.25z" fill="#7db0d9"/><path d="m12 7h-1.75c-.689 0-1.25.561-1.25 1.25v12c0 .414.336.75.75.75h2.25z" fill="#579ed6"/><path d="m20 11h-1.75c-.689 0-1.25.561-1.25 1.25v8c0 .414.336.75.75.75h2.25z" fill="#1d83d4"/><path d="m23.25 21h-22.5c-.414 0-.75-.336-.75-.75s.336-.75.75-.75h22.5c.414 0 .75.336.75.75s-.336.75-.75.75z" fill="#607d8b"/><path d="m24 20.25h-24c0 .414.336.75.75.75h22.5c.414 0 .75-.336.75-.75z" fill="#546d79"/></svg>