<svg id="Layer_1" enable-background="new 0 0 496 496" height="512" viewBox="0 0 496 496" width="512" xmlns="http://www.w3.org/2000/svg"><path d="m429 105v149l-91 91-36-36-72 72-121-121-93 93v-283l143.5 143.5 26.5-26.5 41 41 162.5-162.5z" fill="#ffa4b8"/><path d="m429 254v226h-413v-127l93-93 121 121 72-72 36 36z" fill="#ddfdc5"/><path d="m218.687 392.314-109.687-109.686-81.687 81.686c-6.248 6.248-16.379 6.248-22.627 0-6.249-6.248-6.249-16.379 0-22.627l93-93c6.248-6.248 16.379-6.248 22.627 0l109.687 109.685 60.687-60.686c6.248-6.248 16.379-6.248 22.627 0l24.686 24.686 79.687-79.686c6.248-6.248 16.379-6.248 22.627 0 6.249 6.248 6.249 16.379 0 22.627l-91 91c-6.248 6.248-16.379 6.248-22.627 0l-24.687-24.685-60.687 60.686c-6.248 6.249-16.378 6.248-22.626 0z" fill="#b5f26d"/><path d="m215.687 239.314-29.687-29.686-15.187 15.186c-6.248 6.248-16.379 6.248-22.627 0l-143.5-143.5c-6.249-6.248-6.249-16.379 0-22.627 6.248-6.248 16.379-6.248 22.627 0l132.187 132.185 15.187-15.186c6.248-6.248 16.379-6.248 22.627 0l29.686 29.686 151.187-151.185c6.248-6.248 16.379-6.248 22.627 0l39.5 39.5c6.249 6.248 6.249 16.379 0 22.627-6.248 6.248-16.379 6.248-22.627 0l-28.187-28.186-151.186 151.186c-6.249 6.249-16.379 6.248-22.627 0z" fill="#fe4f60"/><path d="m480 496h-464c-8.837 0-16-7.163-16-16v-464c0-8.837 7.163-16 16-16s16 7.163 16 16v448h448c8.837 0 16 7.163 16 16s-7.163 16-16 16z" fill="#4d4e59"/></svg>