<svg id="Layer_1" enable-background="new 0 0 496 496" height="512" viewBox="0 0 496 496" width="512" xmlns="http://www.w3.org/2000/svg"><path d="m495.982 480.766c-.401 8.608-7.813 15.234-16.431 15.234h-463.551c-8.837 0-16-7.163-16-16v-463.551c0-8.618 6.626-16.031 15.235-16.431 9.188-.428 16.765 6.888 16.765 15.982v47.38l127.5 127.49 15.19-15.18c6.24-6.25 16.38-6.25 22.62 0l29.69 29.68 151.19-151.18c6.24-6.25 16.38-6.25 22.62 0l39.509 39.509c2.997 2.997 4.681 7.062 4.681 11.301v105.986c0 2.813-1.117 5.51-3.106 7.499-27.357 27.357-76.987 76.979-96.401 96.392-4.142 4.141-10.851 4.136-14.993-.004l-17.19-17.183c-6.24-6.25-16.38-6.25-22.62 0l-53.19 53.181c-4.142 4.141-10.857 4.141-14.999 0l-102.191-102.181c-6.24-6.25-16.38-6.25-22.62 0l-62.583 62.583c-3.652 3.652-3.107 8.5-3.107 7.5 0 9.449 11.425 14.182 18.107 7.5l47.583-47.583c6.24-6.25 16.38-6.25 22.62 0l102.191 102.181c4.142 4.142 10.857 4.142 14.999 0l53.19-53.181c6.24-6.25 16.38-6.25 22.62 0l17.19 17.183c4.142 4.141 10.855 4.141 14.997 0 19.313-19.31 65.184-65.175 72.193-72.183 10.06-10.08 27.31-2.88 27.31 11.31v180h35c9.094 0 16.41 7.577 15.982 16.766z"/></svg>