<svg id="bold_1_" enable-background="new 0 0 24 24" height="512" viewBox="0 0 24 24" width="512" xmlns="http://www.w3.org/2000/svg"><path d="m8.319 13.63c-.137 0-.274-.037-.398-.115-.351-.22-.457-.683-.236-1.033l2.36-3.76c.221-.353.684-.456 1.034-.236s.457.683.236 1.033l-2.36 3.76c-.143.227-.387.351-.636.351z"/><path d="m14.439 7.21c-.344 0-.653-.237-.731-.587-.09-.404.164-.805.568-.896l4.12-.92c.407-.089.805.165.896.569s-.164.805-.568.896l-4.12.92c-.056.012-.111.018-.165.018z"/><circle cx="7" cy="15" r="3"/><circle cx="12" cy="7" r="3"/><circle cx="21" cy="5" r="3"/><path d="m2 24c-.553 0-1-.448-1-1v-22c0-.552.447-1 1-1s1 .448 1 1v22c0 .552-.447 1-1 1z"/><path d="m23 23h-22c-.553 0-1-.448-1-1s.447-1 1-1h22c.553 0 1 .448 1 1s-.447 1-1 1z"/></svg>