<svg id="color" enable-background="new 0 0 24 24" height="512" viewBox="0 0 24 24" width="512" xmlns="http://www.w3.org/2000/svg"><path d="m2 24c-.553 0-1-.448-1-1v-22c0-.552.447-1 1-1s1 .448 1 1v22c0 .552-.447 1-1 1z" fill="#90a4ae"/><path d="m2 0c-.553 0-1 .447-1 1v22c0 .553.447 1 1 1z" fill="#7d8f97"/><path d="m23 23h-22c-.553 0-1-.448-1-1s.447-1 1-1h22c.553 0 1 .448 1 1s-.447 1-1 1z" fill="#607d8b"/><path d="m24 22h-24c0 .553.447 1 1 1h22c.553 0 1-.447 1-1z" fill="#546d79"/><path d="m8.319 13.63c-.137 0-.275-.037-.398-.115-.351-.22-.457-.683-.236-1.033l2.36-3.76c.221-.353.684-.456 1.034-.236.351.22.457.683.236 1.033l-2.36 3.76c-.142.227-.387.351-.636.351z" fill="#607d8b"/><path d="m14.439 7.21c-.344 0-.653-.237-.731-.587-.09-.404.164-.805.568-.896l4.12-.92c.407-.089.805.165.896.569.09.404-.164.805-.568.896l-4.12.92z" fill="#607d8b"/><path d="m19.292 5.377-5.584 1.246c.078.35.388.587.731.587l.164-.018 4.12-.92c.405-.09.659-.491.569-.895z" fill="#546d79"/><path d="m11.079 8.485-3.158 5.029c.124.078.262.115.398.115.249 0 .493-.124.636-.352l2.36-3.76c.219-.349.115-.809-.232-1.03z" fill="#546d79"/><circle cx="7" cy="15" fill="#4caf50" r="3"/><circle cx="12" cy="7" fill="#ffc107" r="3"/><circle cx="21" cy="5" fill="#2196f3" r="3"/><path d="m7 12c-1.654 0-3 1.346-3 3s1.346 3 3 3z" fill="#429846"/><path d="m12 4c-1.654 0-3 1.346-3 3s1.346 3 3 3z" fill="#dea806"/><path d="m21 2c-1.654 0-3 1.346-3 3s1.346 3 3 3z" fill="#1d83d4"/></svg>